Encoded from DVD9 (5.57GB)
Source: Santana - Sacred Fire - Live In Mexico (1993) DVD9 / NTSC  
THX to llamafood (bithq)

All songs recorded live in Mexico City, May 22 & 23, 1993

Produced by CARLOS SANTANA and CHESTER THOMPSON

Format                           : MPEG-4
File size                        : 823 MiB
Duration                         : 1h 36mn
Overall bit rate                 : 1 193 Kbps


Video (AVC)
Format settings, ReFrames        : 5 frames
Bit rate                         : 1 000 Kbps
Maximum bit rate                 : 4 480 Kbps
Display aspect ratio             : 720 x 551 (4:3)
Frame rate                       : 29.676 fps
Minimum frame rate               : 9.219 fps
Maximum frame rate               : 29.970 fps
Stream size                      : 689 MiB (84%)
Writing library                  : x264 core 88
Encoding settings                : cabac=1 / ref=5 / deblock=1:0:0 / subme=9 / bframes=5 / b_pyramid=2 / b_adapt=2 / rc=2pass / mbtree=1 / bitrate=1000 /

Audio
ID                               : 2
Format                           : AAC
Format/Info                      : Advanced Audio Codec
Bit rate mode                    : Variable
Bit rate                         : 192 Kbps
Maximum bit rate                 : 202 Kbps
Channel(s)                       : 2 channels
Sampling rate                    : 48.0 KHz
Stream size                      : 130 MiB (16%)

AAC encoded from PCM 1500 KB/s + 2 Pass with Nero
It sounds much better, crispier and lauder than the secondary audio track (AC3 192 KB/s) from dvd.


snap shot:  http://www.bilderkiste.org/show/original/3130060958359/1.jpg

